<svg width="25" height="23" viewBox="0 0 25 23" fill="none" xmlns="http://www.w3.org/2000/svg">
<path fill-rule="evenodd" clip-rule="evenodd" d="M5.67535 22.7447V7.39815H0.316781V22.7447L5.67535 22.7447ZM2.99663 5.3036C4.86469 5.3036 6.02834 4.12418 6.02834 2.65152C5.99302 1.14613 4.86469 0 3.03166 0C1.19834 4.65661e-05 0 1.14618 0 2.65157C0 4.12422 1.16302 5.30365 2.96136 5.30365L2.99663 5.3036ZM8.64111 22.7447C8.64111 22.7447 8.71141 8.83807 8.64111 7.3982H14.0005V9.62378H13.9649C14.6696 8.5765 15.9392 7.03782 18.8299 7.03782C22.3566 7.03782 25 9.23122 25 13.9451V22.7448H19.6415V14.5348C19.6415 12.4719 18.8661 11.0642 16.9264 11.0642C15.4462 11.0642 14.5641 12.0132 14.1767 12.9305C14.035 13.2571 14.0005 13.7157 14.0005 14.1744V22.7447H8.64111Z" fill="white"/>
</svg>
