<svg width="38" height="37" viewBox="0 0 38 37" fill="none" xmlns="http://www.w3.org/2000/svg">
<path d="M19 0C15.3411 0 11.7643 1.08501 8.72196 3.11781C5.67965 5.15062 3.30846 8.03992 1.90824 11.4204C0.508016 14.8008 0.141654 18.5205 0.855481 22.1092C1.56931 25.6978 3.33126 28.9942 5.91853 31.5815C8.5058 34.1687 11.8022 35.9307 15.3908 36.6445C18.9795 37.3583 22.6992 36.992 26.0796 35.5918C29.4601 34.1915 32.3494 31.8204 34.3822 28.778C36.415 25.7357 37.5 22.159 37.5 18.5C37.4943 13.5952 35.5434 8.89298 32.0752 5.42478C28.607 1.95659 23.9048 0.00566884 19 0ZM26.0431 20.5846L20.0079 26.6198C19.7403 26.8866 19.3779 27.0365 19 27.0365C18.6221 27.0365 18.2597 26.8866 17.9921 26.6198L11.9569 20.5846C11.6905 20.3176 11.541 19.9559 11.5412 19.5787C11.5414 19.2016 11.6913 18.84 11.958 18.5733C12.2246 18.3067 12.5862 18.1568 12.9634 18.1566C13.3405 18.1564 13.7023 18.3059 13.9692 18.5723L17.5769 22.18V11.3846C17.5769 11.0072 17.7269 10.6452 17.9937 10.3783C18.2606 10.1115 18.6226 9.96154 19 9.96154C19.3774 9.96154 19.7394 10.1115 20.0063 10.3783C20.2732 10.6452 20.4231 11.0072 20.4231 11.3846V22.18L24.0308 18.5723C24.2978 18.3059 24.6595 18.1564 25.0366 18.1566C25.4138 18.1568 25.7754 18.3067 26.042 18.5733C26.3087 18.84 26.4586 19.2016 26.4588 19.5787C26.459 19.9559 26.3095 20.3176 26.0431 20.5846Z" fill="black"/>
</svg>
