<svg width="25" height="25" viewBox="0 0 25 25" fill="none" xmlns="http://www.w3.org/2000/svg">
<path d="M24.9998 12.4995C24.9706 10.1174 24.2612 7.79323 22.9552 5.80076C21.6492 3.8083 19.8012 2.23049 17.6286 1.25316C15.4559 0.275839 13.0493 -0.0602956 10.692 0.284324C8.33481 0.628959 6.12512 1.63999 4.32324 3.19839C2.52134 4.75678 1.20229 6.79762 0.521409 9.08055C-0.159455 11.3635 -0.173799 13.7934 0.480095 16.0843C1.13399 18.3751 2.42887 20.4313 4.21225 22.0108C5.99561 23.5904 8.19322 24.6275 10.5462 24.9998V16.1402H7.42115V12.4995H10.5462V9.73377C10.4739 9.09072 10.5436 8.43959 10.7505 7.82639C10.9573 7.21318 11.2963 6.65285 11.7433 6.18495C12.1903 5.71703 12.7346 5.35294 13.3377 5.11839C13.9409 4.88382 14.5882 4.78448 15.2339 4.82742C16.1711 4.84025 17.1061 4.92383 18.0308 5.07743V8.20252H16.4683C16.1989 8.16854 15.9251 8.19554 15.6676 8.28152C15.41 8.36751 15.175 8.51028 14.98 8.69929C14.7849 8.88829 14.6349 9.1187 14.541 9.37345C14.447 9.6283 14.4115 9.90096 14.437 10.1713V12.5307H17.9058L17.3433 16.1715H14.4526V24.9217C17.4056 24.4547 20.0935 22.9446 22.0286 20.6655C23.9636 18.3864 25.0177 15.4892 24.9998 12.4995Z" fill="white"/>
</svg>
