<svg width="25" height="17" viewBox="0 0 25 17" fill="none" xmlns="http://www.w3.org/2000/svg">
<path d="M9.46309 15.7346C10.1183 15.5624 10.7033 15.2978 11.2126 14.9371C11.7178 14.5796 12.1278 14.1163 12.429 13.5446C12.7272 12.9801 12.8766 12.3086 12.8766 11.5288C12.8766 10.5667 12.6479 9.74627 12.1809 9.06048C11.7161 8.37929 11.0153 7.90032 10.0687 7.62833C10.7639 7.2996 11.284 6.87619 11.638 6.36008C11.9893 5.84318 12.1649 5.19651 12.1649 4.42246C12.1649 3.70683 12.0474 3.10151 11.813 2.61818C11.5729 2.12755 11.2377 1.73802 10.8094 1.44517C10.3744 1.15239 9.85935 0.938817 9.2561 0.810801C8.64936 0.679373 7.98563 0.615723 7.24999 0.615723H0V15.9934H7.45356C8.14245 15.9935 8.81539 15.9068 9.46309 15.7346ZM3.38611 3.23516H6.5538C6.85317 3.23516 7.14571 3.25651 7.4246 3.31104C7.70856 3.35977 7.95325 3.45016 8.16991 3.58104C8.38832 3.70675 8.5611 3.88635 8.69166 4.11588C8.81777 4.3454 8.88047 4.64112 8.88047 4.99889C8.88047 5.64326 8.69166 6.11318 8.30221 6.39738C7.9088 6.68619 7.41206 6.82849 6.81222 6.82849H3.38619L3.38611 3.23516ZM3.38611 13.3744V9.13976H7.06698C7.79579 9.13976 8.38825 9.30738 8.83245 9.64436C9.2761 9.98627 9.49904 10.5488 9.49904 11.3414C9.49904 11.7457 9.43348 12.0805 9.29666 12.3382C9.16039 12.5982 8.97277 12.8026 8.74634 12.9517C8.51991 13.1068 8.25134 13.2117 7.94856 13.2779C7.65031 13.3447 7.33325 13.3743 6.99912 13.3743L3.38611 13.3744Z" fill="white"/>
<path d="M15.4056 14.6628C15.9034 15.18 16.4953 15.5769 17.2036 15.86C17.9124 16.1397 18.7016 16.2817 19.5786 16.2817C20.8371 16.2817 21.9172 15.9934 22.8028 15.4149C23.6985 14.839 24.3555 13.8821 24.7883 12.5417H22.0951C21.9907 12.8864 21.721 13.2183 21.2779 13.5288C20.8309 13.8396 20.2977 13.9956 19.6807 13.9956C18.823 13.9956 18.161 13.7706 17.7032 13.3233C17.2435 12.8759 16.9459 12.0425 16.9459 11.1624H24.9805C25.0381 10.2985 24.9681 9.47333 24.7678 8.68349C24.5659 7.8923 24.2431 7.18691 23.7893 6.57016C23.3354 5.95231 22.7577 5.45873 22.0529 5.09461C21.3458 4.7254 20.5206 4.54405 19.5786 4.54405C18.7255 4.54405 17.9551 4.69572 17.2566 4.99715C16.558 5.29961 15.9582 5.71389 15.4524 6.23881C14.9477 6.76088 14.564 7.38334 14.2862 8.1046C14.0142 8.82341 13.8751 9.60119 13.8751 10.4338C13.8751 11.2948 14.0091 12.0894 14.2748 12.8072C14.5434 13.5289 14.9203 14.1431 15.4056 14.6628ZM17.0855 8.50103C17.1636 8.2231 17.2982 7.9631 17.4955 7.71667C17.6939 7.47429 17.9535 7.26841 18.2699 7.1031C18.5938 6.93548 18.9981 6.85334 19.4867 6.85334C20.2378 6.85334 20.8536 7.07087 21.2169 7.47318C21.5818 7.87857 21.8487 8.45508 21.9217 9.23492H16.9458C16.9601 9.0177 17.0069 8.7719 17.0855 8.50103Z" fill="white"/>
<path d="M22.5536 1.64731H16.3203V3.16477H22.5536V1.64731Z" fill="white"/>
</svg>
