<svg width="35" height="35" viewBox="0 0 35 35" fill="none" xmlns="http://www.w3.org/2000/svg">
<g clip-path="url(#clip0_33_55)">
<path d="M34.2282 17.0479C34.2442 21.3527 32.6708 25.2901 30.0626 28.3056C29.9143 28.4767 29.6553 28.495 29.4865 28.3432L27.8173 26.8326C27.1669 26.2439 27.0711 25.2638 27.58 24.5485C29.094 22.4206 29.9759 19.8101 29.9497 16.9943C29.8869 10.1384 24.0864 4.34128 17.2316 4.27967C10.1544 4.21692 4.38465 9.88282 4.28082 16.9213C4.17699 23.962 9.8372 29.8208 16.8768 29.9485C18.1638 29.9714 19.4085 29.8059 20.586 29.475C21.161 29.3142 21.7783 29.4499 22.221 29.8504L24.5211 31.9315C24.7333 32.1232 24.6831 32.47 24.4253 32.5921C21.0709 34.1803 17.1175 34.7085 12.9987 33.749C7.32827 32.4278 1.64639 26.6284 0.414175 20.9385C-1.99435 9.81095 6.42693 -0.0148307 17.1381 1.51172e-06C26.4093 0.0125519 34.1928 7.77551 34.2282 17.0479Z" fill="#FF5A4B"/>
<path d="M34.0342 34.2282H29.1909C28.8681 34.2282 28.5566 34.1084 28.317 33.8905L20.8301 27.103C20.7708 27.0494 20.7902 26.9524 20.8655 26.925C21.1074 26.8406 21.3869 26.7288 21.687 26.5816C22.2426 26.3124 22.6511 26.0317 22.8758 25.8663C23.3322 25.532 23.6928 25.1897 23.9689 24.8919C24.0088 24.8497 24.0738 24.8463 24.1172 24.885L34.1278 33.9852C34.2214 34.0708 34.1609 34.2271 34.0342 34.2271V34.2282Z" fill="#FF5A4B"/>
</g>
<defs>
<clipPath id="clip0_33_55">
<rect width="34.2282" height="34.2282" fill="white"/>
</clipPath>
</defs>
</svg>
