<svg width="60" height="60" viewBox="0 0 60 60" fill="none" xmlns="http://www.w3.org/2000/svg">
<g clip-path="url(#clip0_33_83)">
<path d="M60.0001 29.884C60.0281 37.43 57.2701 44.332 52.6981 49.618C52.4381 49.918 51.9841 49.95 51.6881 49.684L48.7621 47.036C47.6221 46.004 47.4541 44.286 48.3461 43.032C51.0001 39.302 52.5461 34.726 52.5001 29.79C52.3901 17.772 42.2221 7.61003 30.2061 7.50203C17.8001 7.39203 7.68614 17.324 7.50414 29.662C7.32214 42.004 17.2441 52.274 29.5841 52.498C31.8401 52.538 34.0221 52.248 36.0861 51.668C37.0941 51.386 38.1761 51.624 38.9521 52.326L42.9841 55.974C43.3561 56.31 43.2681 56.918 42.8161 57.132C36.9361 59.916 30.0061 60.842 22.7861 59.16C12.8461 56.844 2.88614 46.678 0.72614 36.704C-3.49586 17.198 11.2661 -0.0259706 30.0421 2.93977e-05C46.2941 0.0220294 59.9381 13.63 60.0001 29.884Z" fill="#FF5A4B"/>
<path d="M59.66 60.0002H51.17C50.604 60.0002 50.058 59.7902 49.638 59.4082L36.514 47.5102C36.41 47.4162 36.444 47.2462 36.576 47.1982C37 47.0502 37.49 46.8542 38.016 46.5962C38.99 46.1242 39.706 45.6322 40.1 45.3422C40.9 44.7562 41.532 44.1562 42.016 43.6342C42.086 43.5602 42.2 43.5542 42.276 43.6222L59.824 59.5742C59.988 59.7242 59.882 59.9982 59.66 59.9982V60.0002Z" fill="#FF5A4B"/>
</g>
<defs>
<clipPath id="clip0_33_83">
<rect width="60" height="60" fill="white"/>
</clipPath>
</defs>
</svg>
